<?xml version="1.0" standalone="no"?>
<!DOCTYPE svg PUBLIC "-//W3C//DTD SVG 20010904//EN"
 "http://www.w3.org/TR/2001/REC-SVG-20010904/DTD/svg10.dtd">
<svg version="1.0" xmlns="http://www.w3.org/2000/svg"
 width="255.000000pt" height="255.000000pt" viewBox="0 0 255.000000 255.000000"
 preserveAspectRatio="xMidYMid meet">
<metadata>
Created by potrace 1.11, written by Peter Selinger 2001-2013
</metadata>
<g transform="translate(0.000000,255.000000) scale(0.100000,-0.100000)"
fill="#000000" stroke="none">
<path d="M73 2530 c-67 -41 -63 43 -63 -1252 0 -1097 1 -1175 18 -1208 37 -75
-49 -70 1242 -70 1291 0 1205 -5 1242 70 17 33 18 111 18 1205 0 1094 -1 1172
-18 1205 -37 75 50 70 -1247 70 -1133 0 -1161 -1 -1192 -20z m2368 -69 l29
-29 0 -1157 0 -1157 -29 -29 -29 -29 -1142 0 -1142 0 -29 29 -29 29 0 1157 0
1157 29 29 29 29 1142 0 1142 0 29 -29z"/>
<path d="M1867 1930 c-26 -16 -49 -30 -51 -30 -2 0 -64 -36 -139 -79 -74 -43
-154 -90 -178 -104 -69 -39 -148 -84 -374 -216 -116 -68 -228 -133 -250 -146
-65 -36 -208 -120 -232 -136 -26 -16 -30 -41 -10 -58 9 -7 101 -12 268 -13
l254 -3 0 -252 c0 -261 3 -279 41 -271 20 3 34 27 422 698 135 234 268 462
294 508 51 88 55 101 36 120 -18 18 -29 15 -81 -18z"/>
</g>
</svg>
