<?xml version="1.0" encoding="UTF-8" standalone="no"?>
<svg
   xmlns:dc="http://purl.org/dc/elements/1.1/"
   xmlns:cc="http://creativecommons.org/ns#"
   xmlns:rdf="http://www.w3.org/1999/02/22-rdf-syntax-ns#"
   xmlns:svg="http://www.w3.org/2000/svg"
   xmlns="http://www.w3.org/2000/svg"
   xmlns:sodipodi="http://sodipodi.sourceforge.net/DTD/sodipodi-0.dtd"
   xmlns:inkscape="http://www.inkscape.org/namespaces/inkscape"
   version="1.0"
   width="224.5697"
   height="54.186707"
   viewBox="0 0 1131.8313 136.5505"
   id="Flag of Australia"
   sodipodi:version="0.32"
   inkscape:version="0.91 r13725"
   sodipodi:docname="cuzcomd.svg">
  <metadata
     id="metadata30">
    <rdf:RDF>
      <cc:Work
         rdf:about="">
        <dc:format>image/svg+xml</dc:format>
        <dc:type
           rdf:resource="http://purl.org/dc/dcmitype/StillImage" />
        <dc:title></dc:title>
      </cc:Work>
    </rdf:RDF>
  </metadata>
  <sodipodi:namedview
     inkscape:window-height="1022"
     inkscape:window-width="1920"
     inkscape:pageshadow="2"
     inkscape:pageopacity="0.0"
     borderopacity="1.0"
     bordercolor="#666666"
     pagecolor="#ffffff"
     id="base"
     inkscape:zoom="2.56"
     inkscape:cx="15.815475"
     inkscape:cy="-62.800313"
     inkscape:window-x="1920"
     inkscape:window-y="25"
     inkscape:current-layer="Flag of Australia"
     showgrid="false"
     inkscape:window-maximized="1"
     fit-margin-top="0"
     fit-margin-left="0"
     fit-margin-right="0"
     fit-margin-bottom="0" />
  <defs
     id="defs17">
    <!-- 7star and 5star have radius 9, centered at the origin -->
    <polygon
       id="7star"
       points="7.0364833,-5.6114082 3.8997116,-0.89008374 8.7743512,2.0026884 3.1273259,2.4939592 3.9049537,8.1087198 0,4 -3.9049537,8.1087198 -3.1273259,2.4939592 -8.7743512,2.0026884 -3.8997116,-0.89008374 -7.0364833,-5.6114082 -1.735535,-3.6038755 0,-9 0,-9 1.735535,-3.6038755 " />
    <polygon
       id="5star"
       points="8.5595086,-2.7811529 3.8042261,1.236068 5.2900673,7.2811529 0,4 -5.2900673,7.2811529 -3.8042261,1.236068 -8.5595086,-2.7811529 -2.351141,-3.236068 0,-9 0,-9 2.351141,-3.236068 " />
    <polygon
       points="8.5595086,-2.7811529 3.8042261,1.236068 5.2900673,7.2811529 0,4 -5.2900673,7.2811529 -3.8042261,1.236068 -8.5595086,-2.7811529 -2.351141,-3.236068 0,-9 0,-9 2.351141,-3.236068 "
       id="polygon4016" />
    <polygon
       points="7.0364833,-5.6114082 3.8997116,-0.89008374 8.7743512,2.0026884 3.1273259,2.4939592 3.9049537,8.1087198 0,4 -3.9049537,8.1087198 -3.1273259,2.4939592 -8.7743512,2.0026884 -3.8997116,-0.89008374 -7.0364833,-5.6114082 -1.735535,-3.6038755 0,-9 0,-9 1.735535,-3.6038755 "
       id="polygon4014" />
  </defs>
  <path
     style="opacity:1;fill:none;fill-opacity:1;fill-rule:evenodd;stroke:#000000;stroke-width:20.15999985;stroke-linecap:butt;stroke-linejoin:miter;stroke-miterlimit:4;stroke-dasharray:none;stroke-dashoffset:0;stroke-opacity:1"
     d="m 949.10815,-58.02626 0,30.84 -47.719,0 0,47.815 -30.841,0 0,95.63 30.841,0 0,47.814 47.719,0 0,30.842 95.62915,0 0,-30.842 47.911,0 0,-47.814 30.84,0 0,-95.63 -30.84,0 0,-47.815 -47.911,0 0,-30.84 -95.62915,0 z m 47.91,78.655 c 26.39415,0 47.81515,21.421 47.81515,47.815 0,26.393 -21.421,47.815 -47.81515,47.815 -26.393,0 -47.814,-21.422 -47.814,-47.815 0,-26.394 21.421,-47.815 47.814,-47.815 z"
     id="rect1326"
     inkscape:connector-curvature="0" />
  <text
     xml:space="preserve"
     style="font-style:normal;font-weight:normal;font-size:453.6000061px;line-height:1000%;font-family:sans-serif;letter-spacing:0px;word-spacing:0px;fill:#000000;fill-opacity:1;stroke:none;stroke-width:1px;stroke-linecap:butt;stroke-linejoin:miter;stroke-opacity:1"
     x="-25.983068"
     y="194.82333"
     id="text4149"
     sodipodi:linespacing="1000%"><tspan
       sodipodi:role="line"
       id="tspan4151"
       x="-25.983068"
       y="194.82333"
       style="font-style:normal;font-variant:normal;font-weight:300;font-stretch:normal;font-size:504px;font-family:Klavika;-inkscape-font-specification:'Klavika Light';writing-mode:lr-tb">cuzc</tspan></text>
  <text
     xml:space="preserve"
     style="font-style:normal;font-weight:normal;font-size:201.59999084px;line-height:1000%;font-family:sans-serif;letter-spacing:0px;word-spacing:0px;fill:#000000;fill-opacity:1;stroke:none;stroke-width:1px;stroke-linecap:butt;stroke-linejoin:miter;stroke-opacity:1"
     x="970.83923"
     y="81.977623"
     id="text4139"
     sodipodi:linespacing="1000%"><tspan
       sodipodi:role="line"
       id="tspan4141"
       x="970.83923"
       y="81.977623"
       style="font-style:normal;font-variant:normal;font-weight:300;font-stretch:normal;font-size:37.79999924px;font-family:Klavika;-inkscape-font-specification:'Klavika Light'">MD</tspan></text>
</svg>
