<?xml version="1.0" encoding="UTF-8" standalone="no"?>
<!-- Created with Inkscape (http://www.inkscape.org/) -->

<svg
   xmlns:dc="http://purl.org/dc/elements/1.1/"
   xmlns:cc="http://creativecommons.org/ns#"
   xmlns:rdf="http://www.w3.org/1999/02/22-rdf-syntax-ns#"
   xmlns:svg="http://www.w3.org/2000/svg"
   xmlns="http://www.w3.org/2000/svg"
   xmlns:sodipodi="http://sodipodi.sourceforge.net/DTD/sodipodi-0.dtd"
   xmlns:inkscape="http://www.inkscape.org/namespaces/inkscape"
   version="1.1"
   id="svg4487"
   width="1065.7588"
   height="357.57318"
   viewBox="0 0 1065.7587 357.57318"
   sodipodi:docname="dalus_logo.svg"
   inkscape:version="0.92.0 r15299">
  <metadata
     id="metadata4493">
    <rdf:RDF>
      <cc:Work
         rdf:about="">
        <dc:format>image/svg+xml</dc:format>
        <dc:type
           rdf:resource="http://purl.org/dc/dcmitype/StillImage" />
        <dc:title />
      </cc:Work>
    </rdf:RDF>
  </metadata>
  <defs
     id="defs4491" />
  <sodipodi:namedview
     pagecolor="#ffffff"
     bordercolor="#666666"
     borderopacity="1"
     objecttolerance="10"
     gridtolerance="10"
     guidetolerance="10"
     inkscape:pageopacity="0"
     inkscape:pageshadow="2"
     inkscape:window-width="1920"
     inkscape:window-height="1027"
     id="namedview4489"
     showgrid="false"
     fit-margin-top="0"
     fit-margin-left="0"
     fit-margin-right="0"
     fit-margin-bottom="0"
     inkscape:zoom="2.6249998"
     inkscape:cx="219.68232"
     inkscape:cy="271.73015"
     inkscape:window-x="-8"
     inkscape:window-y="-8"
     inkscape:window-maximized="1"
     inkscape:current-layer="svg4487" />
  <rect
     style="fill:#f8f8f8;fill-opacity:1;fill-rule:evenodd;stroke:#000000;stroke-width:2.87376571;stroke-miterlimit:4;stroke-dasharray:none;stroke-opacity:1"
     id="rect4483"
     width="1028.8607"
     height="343.07837"
     x="8.8066349"
     y="5.9786959" />
  <g
     id="g5040"
     transform="translate(-77.955451,-412.09527)">
    <path
       style="fill:#27a04f;stroke-width:1.33333337"
       d="m 91.574914,768.65729 c -5.643403,-1.64204 -10.91019,-7.22324 -12.544786,-13.29367 -0.895428,-3.32537 -1.236942,-60.335 -1.00333,-167.48818 0.34111,-156.46092 0.446799,-162.59985 2.868215,-166.59945 1.382731,-2.28394 4.382731,-5.28394 6.666667,-6.66667 4.049739,-2.45177 17.01816,-2.51405 523.48596,-2.51405 506.46786,0 519.43626,0.0623 523.48596,2.51405 2.2839,1.38273 5.2839,4.38273 6.6667,6.66667 2.4273,4.00939 2.514,9.85516 2.514,169.48594 0,159.63078 -0.087,165.47656 -2.514,169.48594 -1.3828,2.28394 -4.3828,5.28394 -6.6667,6.66667 -4.048,2.45073 -17.1825,2.51951 -521.48596,2.73061 -304.74632,0.1276 -519.034337,-0.27837 -521.472726,-0.98786 z M 415.6697,755.51485 c 1.77627,-3.43492 2.02772,-23.58423 2.05527,-164.69223 0.0277,-142.26864 -0.20523,-161.23602 -2.02388,-164.7529 l -2.05527,-3.97445 H 255.74279 c -112.88414,0 -158.829339,0.42206 -161.152064,1.48036 -1.786974,0.8142 -3.950921,3.02082 -4.808774,4.9036 -2.147105,4.71239 -2.035359,320.09827 0.115088,324.81799 0.800143,1.75612 2.736355,3.81348 4.302695,4.57192 1.909143,0.92443 55.027865,1.40872 161.146985,1.46921 l 158.2991,0.0902 z M 240.7143,678.54556 c -1.27316,-0.51374 -1.66667,-8.83119 -1.66667,-35.22807 v -34.55556 l -33.66667,-0.0204 c -18.51667,-0.0107 -34.46916,-0.5291 -35.44999,-1.15079 -0.98083,-0.62171 -1.58083,-2.49472 -1.33333,-4.16225 0.36592,-2.46543 16.26823,-12.21086 85.11666,-52.16208 46.56666,-27.02161 85.95248,-49.13941 87.52401,-49.15066 1.57155,-0.0112 3.23238,0.95681 3.69072,2.15126 0.54616,1.42326 -16.22453,31.63717 -48.66071,87.66666 -27.22174,47.02222 -50.18257,85.93575 -51.02405,86.47452 -1.70413,1.0911 -2.13409,1.10414 -4.52997,0.13738 z m 352.72823,-28.35583 8.27178,-9.23888 v -46.85559 -46.85558 l -8.27178,-9.23888 -8.27176,-9.23887 H 547.44253 509.7143 v 7.33333 7.33334 h 6 6 v 50.66666 50.66667 h -6 -6 v 7.33333 7.33334 h 37.72823 37.72824 z M 537.7143,594.09526 v -49.33333 h 19.88796 19.88797 l 4.11204,5.19187 4.11204,5.19188 v 38.8978 38.8978 l -4.33334,5.21962 -4.33333,5.21963 -19.66667,0.024 -19.66667,0.0241 z m 124.00001,58.66667 v -6.66667 h -6 c -3.3,0 -5.99198,-0.45 -5.98216,-1 0.009,-0.55 1.73006,-6.7 3.8228,-13.66666 l 3.80494,-12.66667 21.18726,-0.36481 21.18727,-0.36482 3.65661,13.1757 c 2.01113,7.24662 3.65661,13.56078 3.65661,14.03148 0,0.47068 -2.4,0.85578 -5.33333,0.85578 h -5.33333 v 6.66667 6.66667 h 18.66666 18.66667 v -6.58219 c 0,-6.39248 -0.12,-6.59423 -4.16236,-7 l -4.16236,-0.41781 -15.17097,-51.26879 c -8.34404,-28.19783 -15.17098,-51.44783 -15.17098,-51.66666 0,-0.21884 1.5,-0.39789 3.33334,-0.39789 3.1111,0 3.33333,-0.44444 3.33333,-6.66666 v -6.66667 h -23.33333 -23.33334 v 6.66667 c 0,6.55106 0.0709,6.66666 4.08985,6.66666 3.26886,0 3.95146,0.4684 3.4004,2.33334 -0.3792,1.28333 -7.04981,23.63333 -14.82358,49.66666 -7.77378,26.03334 -14.44439,48.38334 -14.82359,49.66667 -0.45357,1.53505 -2.02717,2.33333 -4.5996,2.33333 -3.80329,0 -3.91015,0.18219 -3.91015,6.66667 v 6.66667 h 18.66667 18.66667 z m 1.32933,-49 c -0.009,-2.43235 15.2284,-53.66667 15.96156,-53.66667 0.64078,0 11.4136,35.74764 15.57015,51.66667 0.78048,2.98915 0.72487,3 -15.3722,3 -8.88553,0 -16.15731,-0.45 -16.15951,-1 z m 172.00401,38.33333 v -17.33333 h -6.66667 -6.66667 v 10.66667 10.66666 h -18.66666 -18.66667 v -52 -52 h 6.66667 6.66666 v -6.66666 -6.66667 h -20.66666 -20.66667 v 6.66667 6.66666 h 6 6 v 52 52 h -6 -6 v 6.66667 6.66667 h 39.33333 39.33334 z m 107.80588,8.11348 8.19412,-9.21985 v -49.44681 -49.44682 h 5.33333 5.33334 v -6.66666 -6.66667 h -19.33334 -19.33333 v 6.66667 6.66666 h 6 6 v 45.4748 45.47479 l -4.11204,5.19188 -4.11204,5.19187 h -17.12423 -17.12421 l -4.09708,-4.97046 -4.09707,-4.97046 v -45.6962 -45.69622 h 6 6 v -6.66666 -6.66667 h -19.33333 -19.33334 v 6.66667 6.66666 h 5.33334 5.33333 v 49.44682 49.44681 l 8.19412,9.21985 8.19414,9.21986 h 24.94508 24.94508 z m 121.33337,0 8.1941,-9.21985 -0.044,-19.11348 -0.044,-19.11348 -8.6108,-9 -8.6108,-9 h -18.2814 -18.2814 l -4.3968,-4.26156 c -4.253,-4.12221 -4.3968,-4.61084 -4.3968,-14.94377 0,-10.52059 0.075,-10.75875 4.9373,-15.73846 l 4.9372,-5.05621 h 12.7851 12.7852 l 5.6109,5.71713 c 5.1435,5.24079 5.611,6.29618 5.611,12.66667 v 6.94953 h 7.3333 7.3333 l -0.058,-11.66666 -0.058,-11.66667 -8.4679,-9 -8.4679,-9 h -21.8694 -21.8694 l -8.2718,9.23887 -8.27177,9.23888 v 18.04568 18.04568 l 8.15287,8.71544 8.1529,8.71545 h 18.1242 18.1243 l 5.0562,4.93727 5.0562,4.93726 v 11.4256 c 0,10.78803 -0.2286,11.70299 -4.0971,16.39608 l -4.0971,4.97046 h -15.7423 -15.7423 l -4.8273,-5.89107 c -4.1413,-5.05397 -4.8272,-6.85384 -4.8272,-12.66667 v -6.7756 h -7.33338 -7.33333 l 0.0255,11.66667 0.0255,11.66667 8.09071,9 8.0908,9 h 23.6896 23.6896 l 8.1942,-9.21986 z"
       id="path5042"
       inkscape:connector-curvature="0"
       sodipodi:nodetypes="ssssssccsccsscsccsssssscccscccssccscccccccccccccccccccccccccccccccccccccccscccccssscccccsccsssscccsscscsscccccscsccccccccccccccccccccccccccccccccccccccccccccccccccccccccccccccccccccccccccccccccscccccscccccccccccccccccccsccccssccccccccccc" />
  </g>
</svg>
